<?xml version="1.0" standalone="no"?>
<!DOCTYPE svg PUBLIC "-//W3C//DTD SVG 20010904//EN"
 "http://www.w3.org/TR/2001/REC-SVG-20010904/DTD/svg10.dtd">
<svg version="1.0" xmlns="http://www.w3.org/2000/svg"
 width="512.000000pt" height="512.000000pt" viewBox="0 0 512.000000 512.000000"
 preserveAspectRatio="xMidYMid meet">
<metadata>
Created by potrace 1.15, written by Peter Selinger 2001-2017
</metadata>
<g transform="translate(0.000000,512.000000) scale(0.100000,-0.100000)"
fill="#000000" stroke="none">
<path d="M1335 3840 l-1280 -1280 1280 -1280 c704 -704 1283 -1280 1287 -1280
5 0 8 335 8 745 l0 745 1215 0 1215 0 0 1070 0 1070 -1215 0 -1215 0 0 745 c0
410 -3 745 -8 745 -4 0 -583 -576 -1287 -1280z m2315 -400 l1220 0 0 -880 0
-880 -1220 0 -1220 0 0 -607 0 -608 -1047 1047 -1048 1048 1045 1045 1045
1045 3 -605 2 -605 1220 0z"/>
</g>
</svg>
